<svg version="1.1" width="17.787em" height="3.5045em" viewBox="-38.5 -1652.5 15316.7 3017.9" xmlns="http://www.w3.org/2000/svg" xmlns:xlink="http://www.w3.org/1999/xlink" overflow="hidden"><defs><path d=" M 23 287 C 23.6667 289 24.3333 291.667 25 295 C 25.6667 298.333 27.3333 305.667 30 317 C 32.6667 328.333 36 338.667 40 348 C 44 357.333 49 368.333 55 381 C 61 393.667 67.6667 403.667 75 411 C 82.3333 418.333 91 425.667 101 433 C 111 440.333 122 443.333 134 442 C 184 442 216 420.667 230 378 L 240 387 C 281.333 423.667 320.667 442 358 442 C 401.333 442 435.333 426.333 460 395 C 484.667 363.667 497 325.667 497 281 C 497 209 471.667 142.667 421 82 C 370.333 21.3333 313 -9.33333 249 -10 C 234.333 -10 221.333 -8 210 -4 C 202.667 -0.666667 195 4.33333 187 11 C 179 17.6667 172.667 23.3333 168 28 L 161 36 C 160.333 35.3333 153 6.33333 139 -51 C 125 -108.333 118 -137.333 118 -138 C 118 -142 120.667 -144.333 126 -145 C 131.333 -145.667 143.667 -146.667 163 -148 L 188 -148 C 192 -152.667 194 -155.667 194 -157 C 194 -158.333 193 -164.333 191 -175 C 189 -183 187 -188 185 -190 C 183 -192 178.667 -193.333 172 -194 C 170.667 -194 167 -194 161 -194 C 155 -194 143.667 -193.667 127 -193 C 110.333 -192.333 89.6667 -192 65 -192 C 18.3333 -192 -11.3333 -192.667 -24 -194 L -32 -194 C -36.6667 -189.333 -39 -185.667 -39 -183 C -37.6667 -165 -33.3333 -153.333 -26 -148 L -6 -148 C 16.6667 -147.333 29.6667 -143.333 33 -136 C 35 -132 55.3333 -52.3333 94 103 C 132.667 258.333 153 340.667 155 350 C 155.667 353.333 156 358 156 364 C 156 391.333 147.667 405 131 405 C 116.333 405 104 395.667 94 377 C 84 358.333 76.3333 338 71 316 C 65.6667 294 61.6667 282 59 280 C 57.6667 278.667 52.3333 278 43 278 L 29 278 C 25 282 23 285 23 287 Z M 178 102 C 192.667 51.3333 217.333 26 252 26 C 272 26 291.333 33.6667 310 49 C 328.667 64.3333 344 83.6667 356 107 C 368 129.667 380 165.667 392 215 C 404 264.333 410.333 301 411 325 L 411 331 C 411 380.333 390.667 405 350 405 C 342.667 405 335.333 404 328 402 C 320.667 400 313.333 397 306 393 C 298.667 389 292 384.667 286 380 C 280 375.333 274.333 370.333 269 365 C 263.667 359.667 258.667 354.667 254 350 C 249.333 345.333 245.667 340.667 243 336 C 240.333 331.333 237.667 328 235 326 L 232 322 C 232 321.333 231 316.667 229 308 C 227 299.333 223.333 284.667 218 264 C 212.667 243.333 208 226 204 212 C 186.667 141.333 178 104.667 178 102 Z" id="E1-MJMATHI-70" stroke-width="1"/><path d=" M 21 287 C 21.6667 291 22.6667 296.333 24 303 C 25.3333 309.667 29.3333 322.333 36 341 C 42.6667 359.667 49.3333 375.333 56 388 C 62.6667 400.667 73.6667 413 89 425 C 104.333 437 119.667 442.667 135 442 C 159 442 179 436 195 424 C 211 412 221 400.667 225 390 C 229 379.333 231 372.333 231 369 C 231 367.667 231.333 367 232 367 L 243 378 C 283.667 420.667 330 442 382 442 C 418 442 447 433 469 415 C 491 397 502.333 370.667 503 336 C 503.667 301.333 491 249 465 179 C 439 109 426.333 66.6667 427 52 C 427 34.6667 432.667 26 444 26 C 448 26 451 26.3333 453 27 C 472.333 30.3333 489.667 43 505 65 C 520.333 87 532 113.667 540 145 C 541.333 150.333 548 153 560 153 C 573.333 153 580 150.333 580 145 C 580 144.333 578.667 139.333 576 130 C 570.667 110.667 563.333 91.6667 554 73 C 544.667 54.3333 529.333 35.6667 508 17 C 486.667 -1.66667 463.667 -10.6667 439 -10 C 407.667 -10 385 -1 371 17 C 357 35 350 53.6667 350 73 C 350 85.6667 362 125.667 386 193 C 410 260.333 422.333 311 423 345 C 423 384.333 408.333 404 379 404 L 374 404 C 316.667 404 268.333 370.333 229 303 L 222 291 L 189 157 C 167 69.6667 154.333 22.6667 151 16 C 142.333 -2 128 -11 108 -11 C 99.3333 -11 92.3333 -9 87 -5 C 81.6667 -1 78 3 76 7 C 74 11 73.3333 14.3333 74 17 C 74 25.6667 86.6667 80 112 180 C 137.333 280 150.667 334.333 152 343 C 152.667 346.333 153 354 153 366 C 153 392 145 405 129 405 C 103.667 405 82.6667 371.667 66 305 C 62 291.667 60 284.667 60 284 C 58.6667 280 52.3333 278 41 278 L 27 278 C 23 282 21 285 21 287 Z" id="E1-MJMATHI-6E" stroke-width="1"/><path d=" M 94 250 C 94 296 97.3333 339.667 104 381 C 110.667 422.333 118.333 458 127 488 C 135.667 518 148 547.333 164 576 C 180 604.667 192.667 627 202 643 C 211.333 659 225.333 676.333 244 695 C 262.667 713.667 273.667 725 277 729 C 280.333 733 288.667 740 302 750 L 315 750 L 319 750 C 328.333 750 333 747 333 741 C 333 739 327.333 732 316 720 C 304.667 708 291 690.333 275 667 C 259 643.667 242.667 615 226 581 C 209.333 547 195.333 501 184 443 C 172.667 385 167 320.667 167 250 C 167 179.333 172.667 115.333 184 58 C 195.333 0.666667 209 -45.6667 225 -81 C 241 -116.333 257.333 -145 274 -167 C 290.667 -189 304.667 -206.667 316 -220 C 327.333 -233.333 333 -240.333 333 -241 C 333 -247 328 -250 318 -250 L 315 -250 L 302 -250 L 274 -226 C 211.333 -169.333 165.667 -98.6667 137 -14 C 108.333 70.6667 94 158.667 94 250 Z" id="E1-MJMAIN-28" stroke-width="1"/><path d=" M 52 289 C 56.6667 317 74.6667 349.333 106 386 C 137.333 422.667 176 441.333 222 442 C 245.333 442 266.667 436 286 424 C 305.333 412 319.667 397 329 379 C 357 421 390.667 442 430 442 C 454.667 442 476 434.667 494 420 C 512 405.333 521.333 385.667 522 361 C 522 341.667 517.333 326 508 314 C 498.667 302 489.667 294.667 481 292 C 472.333 289.333 464.667 288 458 288 C 445.333 288 435 291.667 427 299 C 419 306.333 415 316 415 328 C 415 358.667 431.667 379.667 465 391 C 457.667 399.667 444.333 404 425 404 C 416.333 404 410 403.333 406 402 C 380.667 391.333 362 369.333 350 336 C 310 188.667 290 102.667 290 78 C 290 59.3333 295.333 46 306 38 C 316.667 30 328.333 26 341 26 C 365.667 26 390 37 414 59 C 438 81 454.333 108 463 140 C 465 146.667 467 150.333 469 151 C 471 151.667 476.333 152.333 485 153 L 489 153 C 499 153 504 150.333 504 145 C 504 144.333 503.333 140.667 502 134 C 491.333 96 470.667 62.3333 440 33 C 409.333 3.66667 373.667 -11 333 -11 C 286.333 -11 251 10 227 52 C 199.667 10.6667 168.333 -10 133 -10 L 127 -10 C 94.3333 -10 71 -1.33333 57 16 C 43 33.3333 35.6667 51.6667 35 71 C 35 92.3333 41.3333 109.667 54 123 C 66.6667 136.333 81.6667 143 99 143 C 127.667 143 142 129 142 101 C 142 87.6667 138 76 130 66 C 122 56 114.333 49.3333 107 46 C 99.6667 42.6667 95.3333 41 94 41 L 91 40 C 91 39.3333 93 38 97 36 C 101 34 106.333 31.6667 113 29 C 119.667 26.3333 126 25.3333 132 26 C 156 26 176.667 41 194 71 C 200 81.6667 207.667 104.333 217 139 C 226.333 173.667 235.667 209.667 245 247 C 254.333 284.333 259.667 306.333 261 313 C 264.333 331 266 344 266 352 C 266 370.667 261 384 251 392 C 241 400 229.667 404 217 404 C 190.333 404 165.333 393.333 142 372 C 118.667 350.667 102.333 323.333 93 290 C 91.6667 284 90 280.667 88 280 C 86 279.333 80.6667 278.667 72 278 L 58 278 C 54 282 52 285.667 52 289 Z" id="E1-MJMATHI-78" stroke-width="1"/><path d=" M 56 237 C 56 237 56 241.333 56 250 C 56 258.667 60.6667 265.333 70 270 L 369 270 L 369 420 L 370 570 C 376.667 578.667 383 583 389 583 C 397.667 583 404.333 578 409 568 L 409 270 L 707 270 C 717 264.667 722 258 722 250 C 722 242 717 235.333 707 230 L 409 230 L 409 -68 C 403.667 -77.3333 397.667 -82 391 -82 L 389 -82 L 387 -82 C 379 -82 373 -77.3333 369 -68 L 369 230 L 70 230 C 60.6667 234.667 56 241.333 56 250 Z" id="E1-MJMAIN-2B" stroke-width="1"/><path d=" M 21 287 C 21 296.333 26 312.333 36 335 C 46 357.667 62 381.333 84 406 C 106 430.667 130.667 442.667 158 442 C 185.333 442 207.333 434.333 224 419 C 240.667 403.667 249.333 382.333 250 355 C 248.667 342.333 247.667 335.333 247 334 C 247 332 241.667 316.667 231 288 C 220.333 259.333 209.333 227 198 191 C 186.667 155 181.333 126.333 182 105 C 182 76.3333 186.667 56.3333 196 45 C 205.333 33.6667 219.333 27.6667 238 27 C 253.333 27 267.667 30.6667 281 38 C 294.333 45.3333 304.667 53 312 61 C 319.333 69 328.333 80 339 94 C 339 94.6667 340.667 101.333 344 114 C 347.333 126.667 352 146.333 358 173 C 364 199.667 370.333 224.333 377 247 C 402.333 347 416.333 399.333 419 404 C 427.667 422 442 431 462 431 C 470.667 431 477.667 428.667 483 424 C 488.333 419.333 492 415.333 494 412 C 496 408.667 496.667 405.667 496 403 C 496 394.333 479.667 324.333 447 193 C 414.333 61.6667 395.667 -10.3333 391 -23 C 372.333 -78.3333 340 -122.333 294 -155 C 248 -187.667 202 -204.333 156 -205 C 126 -205 99.6667 -197.667 77 -183 C 54.3333 -168.333 43 -146.333 43 -117 C 43 -102.333 45.3333 -90 50 -80 C 54.6667 -70 61 -62.6667 69 -58 C 77 -53.3333 83.6667 -50 89 -48 C 94.3333 -46 100 -45 106 -45 C 135.333 -45 150 -59 150 -87 C 150 -100.333 146 -112 138 -122 C 130 -132 122.333 -138.667 115 -142 C 107.667 -145.333 103.333 -147 102 -147 L 99 -148 C 100.333 -151.333 106.667 -155.333 118 -160 C 129.333 -164.667 140.667 -167 152 -167 L 160 -167 C 171.333 -167 180 -166.333 186 -165 C 208 -159 228.333 -146.333 247 -127 C 265.667 -107.667 280 -87 290 -65 C 300 -43 307.667 -24.3333 313 -9 C 318.333 6.33333 321 16.3333 321 21 L 315 17 C 311 14.3333 304.667 10.6667 296 6 C 287.333 1.33333 278.667 -2.66667 270 -6 C 256.667 -9.33333 243.667 -11 231 -11 C 200.333 -11 173.333 -3.66667 150 11 C 126.667 25.6667 111.333 49.3333 104 82 C 103.333 86.6667 103 97 103 113 C 103 151 114.667 200.667 138 262 C 161.333 323.333 173 362.333 173 379 C 173 379.667 173 380.333 173 381 C 173 387 173 391 173 393 C 173 395 171.667 397.333 169 400 C 166.333 402.667 162.667 404 158 404 L 154 404 C 138.667 404 124.667 397.667 112 385 C 99.3333 372.333 89.3333 358.667 82 344 C 74.6667 329.333 69 315.333 65 302 C 61 288.667 58.3333 281.333 57 280 C 55.6667 278.667 50.3333 278 41 278 L 27 278 C 23 282 21 285 21 287 Z" id="E1-MJMATHI-79" stroke-width="1"/><path d=" M 60 749 L 64 750 C 67.3333 750 70.6667 750 74 750 L 86 750 L 114 726 C 176.667 669.333 222.333 598.667 251 514 C 279.667 429.333 294 341.333 294 250 C 294 204.667 290.667 161 284 119 C 277.333 77 269.667 41.3333 261 12 C 252.333 -17.3333 240 -46.6667 224 -76 C 208 -105.333 195.333 -127.667 186 -143 C 176.667 -158.333 163 -175.333 145 -194 C 127 -212.667 116.333 -223.667 113 -227 C 109.667 -230.333 102 -236.667 90 -246 C 88 -248 86.6667 -249.333 86 -250 L 74 -250 C 68.6667 -250 65 -250 63 -250 C 61 -250 59.3333 -249 58 -247 C 56.6667 -245 55.6667 -242 55 -238 C 55.6667 -237.333 59.3333 -233 66 -225 C 169.333 -117.667 221 40.6667 221 250 C 221 459.333 169.333 617.667 66 725 C 59.3333 733 55.6667 737.333 55 738 C 55 743.333 56.6667 747 60 749 Z" id="E1-MJMAIN-29" stroke-width="1"/><path d=" M 56 347 C 56 355.667 60.6667 362.333 70 367 L 707 367 C 717 361.667 722 355 722 347 C 722 339.667 717.333 333.333 708 328 L 390 327 L 72 327 C 61.3333 330.333 56 337 56 347 Z M 56 153 C 56 163 61.3333 169.667 72 173 L 708 173 C 717.333 166.333 722 159.667 722 153 C 722 144.333 717 137.667 707 133 L 70 133 C 60.6667 137.667 56 144.333 56 153 Z" id="E1-MJMAIN-3D" stroke-width="1"/><path d=" M 60 948 C 62 949.333 263.667 950 665 950 L 1267 950 L 1325 815 C 1364.33 723 1385.33 674.333 1388 669 L 1348 669 L 1341 683 C 1327 710.333 1308.33 736.333 1285 761 C 1251.67 793 1214.67 818.667 1174 838 C 1133.33 857.333 1086.33 871.667 1033 881 C 979.667 890.333 929.333 896 882 898 C 834.667 900 773.667 901.333 699 902 L 574 902 L 543 902 L 251 902 L 259 891 C 567.667 469 722.667 256 724 252 C 724.667 250.667 724.667 248.667 724 246 C 722 244 634 143.333 460 -56 L 196 -356 C 196 -356.667 266.333 -357 407 -357 C 441.667 -357 488.667 -357 548 -357 C 607.333 -357 650 -357.333 676 -358 C 766.667 -358 840 -356.333 896 -353 C 952 -349.667 1007.67 -342.667 1063 -332 C 1118.33 -321.333 1165.33 -305 1204 -283 C 1242.67 -261 1277 -232 1307 -196 C 1321 -178.667 1334.67 -154.667 1348 -124 L 1388 -124 C 1388 -124.667 1385.67 -131.667 1381 -145 C 1376.33 -158.333 1368 -180 1356 -210 C 1344 -240 1333.67 -268 1325 -294 L 1267 -449 L 666 -450 C 264.667 -450 63 -449.333 61 -448 C 57 -446.667 55 -443.667 55 -439 C 55 -437.667 55.6667 -435.667 57 -433 L 590 177 C 590 177.667 579 192.667 557 222 C 535 251.333 500 299.333 452 366 C 404 432.667 360.667 492 322 544 L 56 909 L 55 924 C 55 938 56.6667 946 60 948 Z" id="E1-MJSZ2-2211" stroke-width="1"/><path d=" M 121 647 C 121 653.667 122.333 661.333 125 670 C 127.667 678.667 131.667 683 137 683 C 137.667 683 161.667 684.667 209 688 C 256.333 691.333 280.667 693.333 282 694 C 290 694 294 691.333 294 686 C 294 681.333 277.333 611.667 244 477 C 210.667 345 194 276.667 194 272 C 206.667 278.667 216.333 285 223 291 C 239 303 262 324 292 354 C 322 384 345.333 404.333 362 415 C 388.667 433 414 442 438 442 C 458 442 473.667 435.667 485 423 C 496.333 410.333 502.333 392.333 503 369 C 503 352.333 500.667 338.333 496 327 C 491.333 315.667 485 307.333 477 302 C 469 296.667 462 293 456 291 C 450 289 444 288 438 288 C 424.667 288 414 291.667 406 299 C 398 306.333 394 316 394 328 C 394 344.667 399.333 358.333 410 369 C 420.667 379.667 431.333 386.667 442 390 L 458 393 C 450 401 442 405 434 405 L 430 405 C 408.667 403 387.667 394.667 367 380 C 346.333 365.333 322 344 294 316 C 266 288 244 267.667 228 255 C 229.333 254.333 234.333 253.333 243 252 C 251.667 250.667 259.667 248.667 267 246 C 274.333 243.333 283 240.667 293 238 C 303 235.333 312 230.667 320 224 C 328 217.333 335.333 211.333 342 206 C 348.667 200.667 354.333 192 359 180 C 363.667 168 365.667 157 365 147 C 365 135.667 363.333 122 360 106 C 356.667 90 354.667 76.6667 354 66 C 354 39.3333 363 26 381 26 C 413 26 439 65.6667 459 145 C 460.333 150.333 467 153 479 153 L 483 153 C 493.667 153 499 150 499 144 C 499 140.667 498 136 496 130 C 468.667 36 429.333 -11 378 -11 C 348 -11 323.667 -2.33333 305 15 C 286.333 32.3333 277 57.3333 277 90 C 277 102 278 112.333 280 121 C 282 129.667 283 137.667 283 145 C 283 159.667 278.333 172.333 269 183 C 259.667 193.667 248 201.333 234 206 C 220 210.667 208.667 214.333 200 217 C 191.333 219.667 185.333 220.667 182 220 L 180 220 C 172 192 165 165 159 139 C 153 113 148.333 93.6667 145 81 C 141.667 68.3333 138.667 56 136 44 C 133.333 32 131 24 129 20 C 127 16 124.667 11.6667 122 7 C 119.333 2.33333 115.667 -0.666667 111 -2 C 102.333 -8 93 -11 83 -11 C 71.6667 -11 63 -7.66667 57 -1 C 51 5.66667 48 11.3333 48 16 C 48 22.6667 60.3333 76 85 176 C 109.667 276 134 374.333 158 471 L 195 616 C 195.667 624.667 193.333 630 188 632 C 182.667 634 169.667 635.667 149 637 L 144 637 C 137.333 637 133 637 131 637 C 129 637 126.667 638 124 640 C 121.333 642 120.333 644.333 121 647 Z" id="E1-MJMATHI-6B" stroke-width="1"/><path d=" M 96 585 C 133.333 639 184.333 666 249 666 C 281 666 313 657.333 345 640 C 377 622.667 403 592 423 548 C 447.667 492.667 460 416.667 460 320 C 460 216.667 445.667 137.667 417 83 C 403.667 55 385.333 32.6667 362 16 C 338.667 -0.666667 318.333 -11 301 -15 C 283.667 -19 266.667 -21.3333 250 -22 C 232.667 -22 215.333 -20 198 -16 C 180.667 -12 160.333 -1.33333 137 16 C 113.667 33.3333 95.3333 55.6667 82 83 C 53.3333 137.667 39 216.667 39 320 C 39 436 58 524.333 96 585 Z M 321 597 C 301 618.333 277.333 629 250 629 C 222 629 198 618.333 178 597 C 161.333 579.667 150.333 555.667 145 525 C 139.667 494.333 137 430.333 137 333 C 137 227.667 139.667 158.333 145 125 C 150.333 91.6667 162.333 65.3333 181 46 C 199.667 26 222.667 16 250 16 C 276.667 16 299.333 26 318 46 C 337.333 66 349.333 94 354 130 C 358.667 166 361.333 233.667 362 333 C 362 429.667 359.333 493.333 354 524 C 348.667 554.667 337.667 579 321 597 Z" id="E1-MJMAIN-30" stroke-width="1"/><path d=" M 701 -940 C 701 -942 699 -945 695 -949 L 664 -949 C 662.667 -947.667 653.333 -938.667 636 -922 C 618.667 -905.333 603.667 -891 591 -879 C 578.333 -867 560.333 -846.667 537 -818 C 513.667 -789.333 493 -762.333 475 -737 C 457 -711.667 436 -678 412 -636 C 388 -594 367.333 -552.333 350 -511 C 332.667 -469.667 314.333 -420 295 -362 C 275.667 -304 260.667 -245.333 250 -186 C 239.333 -126.667 229.667 -59 221 17 C 212.333 93 208.333 171 209 251 C 209 725 330.333 1095 573 1361 C 588.333 1377.67 602.667 1392.33 616 1405 C 629.333 1417.67 640.333 1428.33 649 1437 C 657.667 1445.67 662.667 1450 664 1450 L 695 1450 C 699 1446 701 1443 701 1441 C 701 1437.67 694.333 1429 681 1415 C 667.667 1401 650.333 1381.33 629 1356 C 607.667 1330.67 583.667 1299 557 1261 C 530.333 1223 503.333 1175.33 476 1118 C 448.667 1060.67 423.333 997 400 927 C 376.667 857 356.667 773 340 675 C 323.333 577 312.667 471.667 308 359 C 306.667 333.667 306 297.333 306 250 C 306 -9.33333 337.333 -236 400 -430 C 462.667 -624 559.333 -788.667 690 -924 C 697.333 -932 701 -937.333 701 -940 Z" id="E1-MJSZ3-28" stroke-width="1"/><path d=" M 34 1438 C 34 1443.33 35 1446.67 37 1448 C 39 1449.33 43.3333 1450 50 1450 L 56 1450 L 71 1450 C 72.3333 1448.67 81.6667 1439.67 99 1423 C 116.333 1406.33 131.333 1392 144 1380 C 156.667 1368 174.667 1347.67 198 1319 C 221.333 1290.33 242 1263.33 260 1238 C 278 1212.67 299 1179 323 1137 C 347 1095 367.667 1053.67 385 1013 C 402.333 972.333 420.667 922.667 440 864 C 459.333 805.333 474.333 746.667 485 688 C 495.667 629.333 505.333 561.667 514 485 C 522.667 408.333 526.667 330.333 526 251 C 526 173 523.667 107 519 53 C 487.667 -328.333 368.667 -632.667 162 -860 C 146.667 -876.667 132.333 -891.333 119 -904 C 105.667 -916.667 94.6667 -927.333 86 -936 C 77.3333 -944.667 72.3333 -949 71 -949 L 56 -949 C 47.3333 -949 41.6667 -948.333 39 -947 C 36.3333 -945.667 34.6667 -942.333 34 -937 C 70 -901 105.333 -859.667 140 -813 C 332 -557.667 428 -203 428 251 C 428 385.667 419.333 511.333 402 628 C 384.667 744.667 363.333 842.667 338 922 C 312.667 1001.33 281.667 1076 245 1146 C 208.333 1216 175 1270.33 145 1309 C 115 1347.67 82 1386.33 46 1425 C 44.6667 1426.33 43.3333 1427.67 42 1429 C 40.6667 1430.33 39.6667 1431.67 39 1433 C 38.3333 1434.33 37.3333 1435.33 36 1436 L 34 1438 Z" id="E1-MJSZ3-29" stroke-width="1"/><path d=" M 84 237 C 84 237 84 241.333 84 250 C 84 258.667 88.6667 265.333 98 270 L 679 270 C 689 264.667 694 258 694 250 C 694 242 689 235.333 679 230 L 98 230 C 88.6667 234.667 84 241.333 84 250 Z" id="E1-MJMAIN-2212" stroke-width="1"/><path d=" M 78 60 C 78 76 83.6667 90 95 102 C 106.333 114 120.667 120 138 120 C 154 120 168 114.667 180 104 C 192 93.3333 198.333 79 199 61 C 199 44.3333 193.333 30 182 18 C 170.667 6 156.333 0 139 0 C 121.667 0 107.333 5.66667 96 17 C 84.6667 28.3333 78.6667 42.6667 78 60 Z" id="E1-MJMAIN-2E" stroke-width="1"/></defs><g stroke="currentColor" stroke-width="0" fill="currentColor" transform="matrix(1,0,0,-1,0,0)"><use width="100%" height="100%" xlink:href="#E1-MJMATHI-70"></use><use x="712" y="-213" width="100%" height="100%" xlink:href="#E1-MJMATHI-6E" transform="matrix(0.707,0,0,0.707,0,0)"></use><use x="1028" width="100%" height="100%" xlink:href="#E1-MJMAIN-28"></use><use x="1417" width="100%" height="100%" xlink:href="#E1-MJMATHI-78"></use><use x="2212" width="100%" height="100%" xlink:href="#E1-MJMAIN-2B"></use><use x="3213" width="100%" height="100%" xlink:href="#E1-MJMATHI-79"></use><use x="3710" width="100%" height="100%" xlink:href="#E1-MJMAIN-29"></use><use x="4377" width="100%" height="100%" xlink:href="#E1-MJMAIN-3D"></use><g transform="matrix(1,0,0,1,5434,0)"><use width="100%" height="100%" xlink:href="#E1-MJSZ2-2211"></use><g transform="matrix(1,0,0,1,85,-1110)"><use width="100%" height="100%" xlink:href="#E1-MJMATHI-6B" transform="matrix(0.707,0,0,0.707,0,0)"></use><use x="521" width="100%" height="100%" xlink:href="#E1-MJMAIN-3D" transform="matrix(0.707,0,0,0.707,0,0)"></use><use x="1300" width="100%" height="100%" xlink:href="#E1-MJMAIN-30" transform="matrix(0.707,0,0,0.707,0,0)"></use></g><use x="721" y="1627" width="100%" height="100%" xlink:href="#E1-MJMATHI-6E" transform="matrix(0.707,0,0,0.707,0,0)"></use></g><g transform="matrix(1,0,0,1,7045,0)"><use y="-1" width="100%" height="100%" xlink:href="#E1-MJSZ3-28"></use><g transform="matrix(1,0,0,1,736,0)"><use y="676" width="100%" height="100%" xlink:href="#E1-MJMATHI-6E"></use><use x="39" y="-686" width="100%" height="100%" xlink:href="#E1-MJMATHI-6B"></use></g><use x="1337" y="-1" width="100%" height="100%" xlink:href="#E1-MJSZ3-29"></use></g><g transform="matrix(1,0,0,1,9285,0)"><use width="100%" height="100%" xlink:href="#E1-MJMATHI-70"></use><use x="712" y="-213" width="100%" height="100%" xlink:href="#E1-MJMATHI-6B" transform="matrix(0.707,0,0,0.707,0,0)"></use></g><use x="10257" width="100%" height="100%" xlink:href="#E1-MJMAIN-28"></use><use x="10647" width="100%" height="100%" xlink:href="#E1-MJMATHI-78"></use><use x="11219" width="100%" height="100%" xlink:href="#E1-MJMAIN-29"></use><g transform="matrix(1,0,0,1,11775,0)"><use width="100%" height="100%" xlink:href="#E1-MJMATHI-70"></use><g transform="matrix(1,0,0,1,503,-150)"><use width="100%" height="100%" xlink:href="#E1-MJMATHI-6E" transform="matrix(0.707,0,0,0.707,0,0)"></use><use x="600" width="100%" height="100%" xlink:href="#E1-MJMAIN-2212" transform="matrix(0.707,0,0,0.707,0,0)"></use><use x="1379" width="100%" height="100%" xlink:href="#E1-MJMATHI-6B" transform="matrix(0.707,0,0,0.707,0,0)"></use></g></g><use x="13723" width="100%" height="100%" xlink:href="#E1-MJMAIN-28"></use><use x="14112" width="100%" height="100%" xlink:href="#E1-MJMATHI-79"></use><use x="14610" width="100%" height="100%" xlink:href="#E1-MJMAIN-29"></use><use x="14999" width="100%" height="100%" xlink:href="#E1-MJMAIN-2E"></use></g></svg>